# MagicaVoxel @ Ephtracy

# group
o 

# material
mtllib CornerSlopedSnowTile.mtl
usemtl palette

# normals
vn -1 0 0
vn 1 0 0
vn 0 0 1
vn 0 0 -1
vn 0 -1 0
vn 0 1 0

# texcoords
vt 0.0683594 0.5
vt 0.369141 0.5
vt 0.958984 0.5

# verts
v -0.4 0 0.4
v -0.4 0 -0.4
v -0.4 0.1 0.4
v -0.4 0.1 -0.4
v -0.3 0.1 0.4
v -0.3 0.1 -0.3
v -0.3 0.2 0.4
v -0.3 0.2 -0.3
v -0.2 0.2 0.4
v -0.2 0.2 -0.2
v -0.2 0.3 0.4
v -0.2 0.3 -0.2
v -0.1 0.3 0.4
v -0.1 0.3 -0.1
v -0.1 0.4 0.4
v -0.1 0.4 -0.1
v 0 0.4 0.4
v 0 0.4 0
v 0 0.5 0.4
v 0 0.5 0
v 0.1 0.3 0.1
v 0.1 0.3 0
v 0.1 0.4 0.1
v 0.1 0.4 0
v 0.1 0.5 0.4
v 0.1 0.5 0.1
v 0.1 0.6 0.4
v 0.1 0.6 0.1
v 0.2 0.6 0.4
v 0.2 0.6 0.2
v 0.2 0.7 0.4
v 0.2 0.7 0.2
v 0.3 0.7 0.4
v 0.3 0.7 0.3
v 0.3 0.8 0.4
v 0.3 0.8 0.3
v 0 0.3 0.1
v 0 0.3 0
v 0 0.4 0.1
v 0 0.4 0
v 0.4 0 0.4
v 0.4 0 -0.3
v 0.4 0 -0.4
v 0.4 0.1 -0.2
v 0.4 0.1 -0.3
v 0.4 0.1 -0.4
v 0.4 0.2 -0.1
v 0.4 0.2 -0.2
v 0.4 0.2 -0.3
v 0.4 0.3 0
v 0.4 0.3 -0.1
v 0.4 0.3 -0.2
v 0.4 0.4 0.1
v 0.4 0.4 0
v 0.4 0.4 -0.1
v 0.4 0.5 0.2
v 0.4 0.5 0.1
v 0.4 0.5 0
v 0.4 0.6 0.3
v 0.4 0.6 0.2
v 0.4 0.6 0.1
v 0.4 0.7 0.4
v 0.4 0.7 0.3
v 0.4 0.7 0.2
v 0.4 0.8 0.4
v 0.4 0.8 0.3
v -0.4 0 0.4
v -0.4 0.1 0.4
v -0.3 0 0.4
v -0.3 0.1 0.4
v -0.3 0.2 0.4
v -0.2 0.1 0.4
v -0.2 0.2 0.4
v -0.2 0.3 0.4
v -0.1 0.2 0.4
v -0.1 0.3 0.4
v -0.1 0.4 0.4
v 0 0.3 0.4
v 0 0.4 0.4
v 0 0.5 0.4
v 0.1 0.4 0.4
v 0.1 0.5 0.4
v 0.1 0.6 0.4
v 0.2 0.5 0.4
v 0.2 0.6 0.4
v 0.2 0.7 0.4
v 0.3 0.6 0.4
v 0.3 0.7 0.4
v 0.3 0.8 0.4
v 0.4 0 0.4
v 0.4 0.7 0.4
v 0.4 0.8 0.4
v 0 0.3 0
v 0 0.4 0
v 0.1 0.3 0
v 0.1 0.4 0
v 0.3 0.7 0.3
v 0.3 0.8 0.3
v 0.4 0.7 0.3
v 0.4 0.8 0.3
v 0.2 0.6 0.2
v 0.2 0.7 0.2
v 0.4 0.6 0.2
v 0.4 0.7 0.2
v 0 0.3 0.1
v 0 0.4 0.1
v 0.1 0.3 0.1
v 0.1 0.4 0.1
v 0.1 0.5 0.1
v 0.1 0.6 0.1
v 0.4 0.5 0.1
v 0.4 0.6 0.1
v 0 0.4 0
v 0 0.5 0
v 0.4 0.4 0
v 0.4 0.5 0
v -0.1 0.3 -0.1
v -0.1 0.4 -0.1
v 0.4 0.3 -0.1
v 0.4 0.4 -0.1
v -0.2 0.2 -0.2
v -0.2 0.3 -0.2
v 0.4 0.2 -0.2
v 0.4 0.3 -0.2
v -0.3 0.1 -0.3
v -0.3 0.2 -0.3
v 0.4 0.1 -0.3
v 0.4 0.2 -0.3
v -0.4 0 -0.4
v -0.4 0.1 -0.4
v 0.4 0 -0.4
v 0.4 0.1 -0.4
v -0.4 0 0.4
v -0.3 0 0.4
v 0.4 0 0.4
v -0.3 0 -0.3
v 0.4 0 -0.3
v -0.4 0 -0.4
v 0.4 0 -0.4
v 0 0.4 0.1
v 0.1 0.4 0.1
v 0 0.4 0
v 0.1 0.4 0
v -0.4 0.1 0.4
v -0.3 0.1 0.4
v -0.3 0.1 -0.3
v 0.4 0.1 -0.3
v -0.4 0.1 -0.4
v 0.4 0.1 -0.4
v -0.3 0.2 0.4
v -0.2 0.2 0.4
v -0.2 0.2 -0.2
v 0.4 0.2 -0.2
v -0.3 0.2 -0.3
v 0.4 0.2 -0.3
v -0.2 0.3 0.4
v -0.1 0.3 0.4
v 0 0.3 0.1
v 0.1 0.3 0.1
v 0 0.3 0
v 0.1 0.3 0
v -0.1 0.3 -0.1
v 0.4 0.3 -0.1
v -0.2 0.3 -0.2
v 0.4 0.3 -0.2
v -0.1 0.4 0.4
v 0 0.4 0.4
v 0 0.4 0
v 0.4 0.4 0
v -0.1 0.4 -0.1
v 0.4 0.4 -0.1
v 0 0.5 0.4
v 0.1 0.5 0.4
v 0.1 0.5 0.1
v 0.4 0.5 0.1
v 0 0.5 0
v 0.4 0.5 0
v 0.1 0.6 0.4
v 0.2 0.6 0.4
v 0.2 0.6 0.2
v 0.4 0.6 0.2
v 0.1 0.6 0.1
v 0.4 0.6 0.1
v 0.2 0.7 0.4
v 0.3 0.7 0.4
v 0.3 0.7 0.3
v 0.4 0.7 0.3
v 0.2 0.7 0.2
v 0.4 0.7 0.2
v 0.3 0.8 0.4
v 0.4 0.8 0.4
v 0.3 0.8 0.3
v 0.4 0.8 0.3

# faces
f 3/3/1 2/3/1 1/3/1
f 4/3/1 2/3/1 3/3/1
f 7/3/1 6/3/1 5/3/1
f 8/3/1 6/3/1 7/3/1
f 11/3/1 10/3/1 9/3/1
f 12/3/1 10/3/1 11/3/1
f 15/3/1 14/3/1 13/3/1
f 16/3/1 14/3/1 15/3/1
f 19/3/1 18/3/1 17/3/1
f 20/3/1 18/3/1 19/3/1
f 23/2/1 22/2/1 21/2/1
f 24/2/1 22/2/1 23/2/1
f 27/3/1 26/3/1 25/3/1
f 28/3/1 26/3/1 27/3/1
f 31/3/1 30/3/1 29/3/1
f 32/3/1 30/3/1 31/3/1
f 35/3/1 34/3/1 33/3/1
f 36/3/1 34/3/1 35/3/1
f 37/3/2 38/3/2 39/3/2
f 39/3/2 38/3/2 40/3/2
f 41/2/2 42/2/2 44/2/2
f 42/3/2 43/3/2 45/3/2
f 44/2/2 42/2/2 45/2/2
f 45/3/2 43/3/2 46/3/2
f 41/2/2 44/2/2 47/2/2
f 44/3/2 45/3/2 48/3/2
f 47/2/2 44/2/2 48/2/2
f 48/3/2 45/3/2 49/3/2
f 41/2/2 47/2/2 50/2/2
f 47/3/2 48/3/2 51/3/2
f 50/2/2 47/2/2 51/2/2
f 51/3/2 48/3/2 52/3/2
f 41/2/2 50/2/2 53/2/2
f 50/3/2 51/3/2 54/3/2
f 53/2/2 50/2/2 54/2/2
f 54/3/2 51/3/2 55/3/2
f 41/2/2 53/2/2 56/2/2
f 53/3/2 54/3/2 57/3/2
f 56/2/2 53/2/2 57/2/2
f 57/3/2 54/3/2 58/3/2
f 41/2/2 56/2/2 59/2/2
f 56/3/2 57/3/2 60/3/2
f 59/2/2 56/2/2 60/2/2
f 60/3/2 57/3/2 61/3/2
f 41/2/2 59/2/2 62/2/2
f 59/3/2 60/3/2 63/3/2
f 62/2/2 59/2/2 63/2/2
f 63/3/2 60/3/2 64/3/2
f 62/3/2 63/3/2 65/3/2
f 65/3/2 63/3/2 66/3/2
f 69/3/3 68/3/3 67/3/3
f 70/3/3 68/3/3 69/3/3
f 72/2/3 70/2/3 69/2/3
f 72/3/3 71/3/3 70/3/3
f 73/3/3 71/3/3 72/3/3
f 75/2/3 73/2/3 72/2/3
f 75/3/3 74/3/3 73/3/3
f 76/3/3 74/3/3 75/3/3
f 78/2/3 76/2/3 75/2/3
f 78/3/3 77/3/3 76/3/3
f 79/3/3 77/3/3 78/3/3
f 81/2/3 79/2/3 78/2/3
f 81/3/3 80/3/3 79/3/3
f 82/3/3 80/3/3 81/3/3
f 84/2/3 82/2/3 81/2/3
f 84/3/3 83/3/3 82/3/3
f 85/3/3 83/3/3 84/3/3
f 87/2/3 85/2/3 84/2/3
f 87/3/3 86/3/3 85/3/3
f 88/3/3 86/3/3 87/3/3
f 90/2/3 72/2/3 69/2/3
f 90/2/3 75/2/3 72/2/3
f 90/2/3 88/2/3 87/2/3
f 90/2/3 87/2/3 84/2/3
f 90/2/3 84/2/3 81/2/3
f 90/2/3 81/2/3 78/2/3
f 90/2/3 78/2/3 75/2/3
f 91/3/3 89/3/3 88/3/3
f 91/2/3 88/2/3 90/2/3
f 92/3/3 89/3/3 91/3/3
f 95/3/3 94/3/3 93/3/3
f 96/3/3 94/3/3 95/3/3
f 97/3/4 98/3/4 99/3/4
f 99/3/4 98/3/4 100/3/4
f 101/3/4 102/3/4 103/3/4
f 103/3/4 102/3/4 104/3/4
f 105/2/4 106/2/4 107/2/4
f 107/2/4 106/2/4 108/2/4
f 109/3/4 110/3/4 111/3/4
f 111/3/4 110/3/4 112/3/4
f 113/3/4 114/3/4 115/3/4
f 115/3/4 114/3/4 116/3/4
f 117/3/4 118/3/4 119/3/4
f 119/3/4 118/3/4 120/3/4
f 121/3/4 122/3/4 123/3/4
f 123/3/4 122/3/4 124/3/4
f 125/3/4 126/3/4 127/3/4
f 127/3/4 126/3/4 128/3/4
f 129/3/4 130/3/4 131/3/4
f 131/3/4 130/3/4 132/3/4
f 136/3/5 134/3/5 133/3/5
f 136/2/5 135/2/5 134/2/5
f 137/2/5 135/2/5 136/2/5
f 138/3/5 136/3/5 133/3/5
f 138/3/5 137/3/5 136/3/5
f 139/3/5 137/3/5 138/3/5
f 142/3/5 141/3/5 140/3/5
f 143/3/5 141/3/5 142/3/5
f 144/3/6 145/3/6 146/3/6
f 144/3/6 146/3/6 148/3/6
f 146/3/6 147/3/6 148/3/6
f 148/3/6 147/3/6 149/3/6
f 150/3/6 151/3/6 152/3/6
f 150/3/6 152/3/6 154/3/6
f 152/3/6 153/3/6 154/3/6
f 154/3/6 153/3/6 155/3/6
f 158/2/6 159/2/6 160/2/6
f 160/2/6 159/2/6 161/2/6
f 156/3/6 157/3/6 162/3/6
f 156/3/6 162/3/6 164/3/6
f 162/3/6 163/3/6 164/3/6
f 164/3/6 163/3/6 165/3/6
f 166/3/6 167/3/6 168/3/6
f 166/3/6 168/3/6 170/3/6
f 168/3/6 169/3/6 170/3/6
f 170/3/6 169/3/6 171/3/6
f 172/3/6 173/3/6 174/3/6
f 172/3/6 174/3/6 176/3/6
f 174/3/6 175/3/6 176/3/6
f 176/3/6 175/3/6 177/3/6
f 178/3/6 179/3/6 180/3/6
f 178/3/6 180/3/6 182/3/6
f 180/3/6 181/3/6 182/3/6
f 182/3/6 181/3/6 183/3/6
f 184/3/6 185/3/6 186/3/6
f 184/3/6 186/3/6 188/3/6
f 186/3/6 187/3/6 188/3/6
f 188/3/6 187/3/6 189/3/6
f 190/3/6 191/3/6 192/3/6
f 192/3/6 191/3/6 193/3/6
