# MagicaVoxel @ Ephtracy

# group
o 

# material
mtllib GrassToSnowTile.mtl
usemtl palette

# normals
vn -1 0 0
vn 1 0 0
vn 0 0 1
vn 0 0 -1
vn 0 -1 0
vn 0 1 0

# texcoords
vt 0.0683594 0.5
vt 0.369141 0.5
vt 0.904297 0.5
vt 0.958984 0.5

# verts
v -0.4 0 0.4
v -0.4 0 -0.4
v -0.4 0.7 0.4
v -0.4 0.7 -0.4
v -0.4 0.8 0.4
v -0.4 0.8 -0.4
v -0.1 0.2 0
v -0.1 0.2 -0.1
v -0.1 0.4 0
v -0.1 0.4 -0.1
v 0.1 0.3 0
v 0.1 0.3 -0.1
v 0.1 0.4 0
v 0.1 0.4 -0.1
v -0.2 0.2 0
v -0.2 0.2 -0.1
v -0.2 0.4 0
v -0.2 0.4 -0.1
v 0 0.3 0
v 0 0.3 -0.1
v 0 0.4 0
v 0 0.4 -0.1
v 0.4 0 0.4
v 0.4 0 -0.4
v 0.4 0.7 0.4
v 0.4 0.7 -0.4
v 0.4 0.8 0.4
v 0.4 0.8 -0.4
v -0.4 0 0.4
v -0.4 0.7 0.4
v -0.4 0.8 0.4
v 0.2 0.7 0.4
v 0.2 0.8 0.4
v 0.4 0 0.4
v 0.4 0.7 0.4
v 0.4 0.8 0.4
v -0.2 0.2 -0.1
v -0.2 0.4 -0.1
v -0.1 0.2 -0.1
v -0.1 0.4 -0.1
v 0 0.3 -0.1
v 0 0.4 -0.1
v 0.1 0.3 -0.1
v 0.1 0.4 -0.1
v -0.2 0.2 0
v -0.2 0.4 0
v -0.1 0.2 0
v -0.1 0.4 0
v 0 0.3 0
v 0 0.4 0
v 0.1 0.3 0
v 0.1 0.4 0
v -0.4 0 -0.4
v -0.4 0.7 -0.4
v -0.4 0.8 -0.4
v 0.2 0.7 -0.4
v 0.2 0.8 -0.4
v 0.4 0 -0.4
v 0.4 0.7 -0.4
v 0.4 0.8 -0.4
v -0.4 0 0.4
v 0.4 0 0.4
v -0.4 0 -0.4
v 0.4 0 -0.4
v -0.2 0.4 0
v -0.1 0.4 0
v 0 0.4 0
v 0.1 0.4 0
v -0.2 0.4 -0.1
v -0.1 0.4 -0.1
v 0 0.4 -0.1
v 0.1 0.4 -0.1
v -0.2 0.2 0
v -0.1 0.2 0
v -0.2 0.2 -0.1
v -0.1 0.2 -0.1
v 0 0.3 0
v 0.1 0.3 0
v 0 0.3 -0.1
v 0.1 0.3 -0.1
v -0.4 0.8 0.4
v 0.2 0.8 0.4
v 0.4 0.8 0.4
v 0.1 0.8 0.2
v 0.2 0.8 0.2
v 0 0.8 0.1
v 0.1 0.8 0.1
v 0 0.8 -0.1
v 0.1 0.8 -0.1
v 0.1 0.8 -0.2
v 0.2 0.8 -0.2
v -0.4 0.8 -0.4
v 0.2 0.8 -0.4
v 0.4 0.8 -0.4

# faces
f 3/2/1 2/2/1 1/2/1
f 4/2/1 2/2/1 3/2/1
f 5/3/1 4/3/1 3/3/1
f 6/3/1 4/3/1 5/3/1
f 9/2/1 8/2/1 7/2/1
f 10/2/1 8/2/1 9/2/1
f 13/2/1 12/2/1 11/2/1
f 14/2/1 12/2/1 13/2/1
f 15/2/2 16/2/2 17/2/2
f 17/2/2 16/2/2 18/2/2
f 19/2/2 20/2/2 21/2/2
f 21/2/2 20/2/2 22/2/2
f 23/2/2 24/2/2 25/2/2
f 25/2/2 24/2/2 26/2/2
f 25/4/2 26/4/2 27/4/2
f 27/4/2 26/4/2 28/4/2
f 32/2/3 30/2/3 29/2/3
f 32/3/3 31/3/3 30/3/3
f 33/3/3 31/3/3 32/3/3
f 34/2/3 32/2/3 29/2/3
f 35/4/3 33/4/3 32/4/3
f 35/2/3 32/2/3 34/2/3
f 36/4/3 33/4/3 35/4/3
f 39/2/3 38/2/3 37/2/3
f 40/2/3 38/2/3 39/2/3
f 43/2/3 42/2/3 41/2/3
f 44/2/3 42/2/3 43/2/3
f 45/2/4 46/2/4 47/2/4
f 47/2/4 46/2/4 48/2/4
f 49/2/4 50/2/4 51/2/4
f 51/2/4 50/2/4 52/2/4
f 53/2/4 54/2/4 56/2/4
f 54/3/4 55/3/4 56/3/4
f 56/3/4 55/3/4 57/3/4
f 53/2/4 56/2/4 58/2/4
f 56/4/4 57/4/4 59/4/4
f 58/2/4 56/2/4 59/2/4
f 59/4/4 57/4/4 60/4/4
f 63/2/5 62/2/5 61/2/5
f 64/2/5 62/2/5 63/2/5
f 69/2/5 66/2/5 65/2/5
f 70/2/5 66/2/5 69/2/5
f 71/2/5 68/2/5 67/2/5
f 72/2/5 68/2/5 71/2/5
f 73/2/6 74/2/6 75/2/6
f 75/2/6 74/2/6 76/2/6
f 77/2/6 78/2/6 79/2/6
f 79/2/6 78/2/6 80/2/6
f 81/3/6 82/3/6 84/3/6
f 82/4/6 83/4/6 85/4/6
f 84/3/6 82/3/6 85/3/6
f 81/3/6 84/3/6 86/3/6
f 84/4/6 85/4/6 87/4/6
f 86/3/6 84/3/6 87/3/6
f 81/3/6 86/3/6 88/3/6
f 86/4/6 87/4/6 88/4/6
f 87/4/6 85/4/6 89/4/6
f 88/4/6 87/4/6 89/4/6
f 88/3/6 89/3/6 90/3/6
f 89/4/6 85/4/6 90/4/6
f 85/4/6 83/4/6 91/4/6
f 90/4/6 85/4/6 91/4/6
f 88/3/6 90/3/6 92/3/6
f 81/3/6 88/3/6 92/3/6
f 90/3/6 91/3/6 92/3/6
f 91/4/6 83/4/6 93/4/6
f 92/3/6 91/3/6 93/3/6
f 93/4/6 83/4/6 94/4/6
