# MagicaVoxel @ Ephtracy

# group
o 

# material
mtllib GrassToSnowGrassCornerTile.mtl
usemtl palette

# normals
vn -1 0 0
vn 1 0 0
vn 0 0 1
vn 0 0 -1
vn 0 -1 0
vn 0 1 0

# texcoords
vt 0.369141 0.5
vt 0.904297 0.5
vt 0.958984 0.5

# verts
v -0.4 0 0.4
v -0.4 0 -0.4
v -0.4 0.7 0.4
v -0.4 0.7 -0.4
v -0.4 0.8 0.4
v -0.4 0.8 -0.4
v 0.4 0 0.4
v 0.4 0 -0.4
v 0.4 0.7 0.4
v 0.4 0.7 0.2
v 0.4 0.7 -0.4
v 0.4 0.8 0.4
v 0.4 0.8 0.2
v 0.4 0.8 -0.4
v -0.4 0 0.4
v -0.4 0.7 0.4
v -0.4 0.8 0.4
v 0.2 0.7 0.4
v 0.2 0.8 0.4
v 0.4 0 0.4
v 0.4 0.7 0.4
v 0.4 0.8 0.4
v -0.4 0 -0.4
v -0.4 0.7 -0.4
v -0.4 0.8 -0.4
v 0.4 0 -0.4
v 0.4 0.7 -0.4
v 0.4 0.8 -0.4
v -0.4 0 0.4
v 0.4 0 0.4
v -0.4 0 -0.4
v 0.4 0 -0.4
v -0.4 0.8 0.4
v 0.2 0.8 0.4
v 0.4 0.8 0.4
v 0.2 0.8 0.3
v 0.3 0.8 0.3
v 0.3 0.8 0.2
v 0.4 0.8 0.2
v -0.4 0.8 -0.4
v 0.4 0.8 -0.4

# faces
f 3/1/1 2/1/1 1/1/1
f 4/1/1 2/1/1 3/1/1
f 5/2/1 4/2/1 3/2/1
f 6/2/1 4/2/1 5/2/1
f 7/1/2 8/1/2 9/1/2
f 9/1/2 8/1/2 10/1/2
f 10/1/2 8/1/2 11/1/2
f 9/3/2 10/3/2 12/3/2
f 10/2/2 11/2/2 13/2/2
f 12/3/2 10/3/2 13/3/2
f 13/2/2 11/2/2 14/2/2
f 18/1/3 16/1/3 15/1/3
f 18/2/3 17/2/3 16/2/3
f 19/2/3 17/2/3 18/2/3
f 20/1/3 18/1/3 15/1/3
f 21/3/3 19/3/3 18/3/3
f 21/1/3 18/1/3 20/1/3
f 22/3/3 19/3/3 21/3/3
f 23/1/4 24/1/4 26/1/4
f 24/2/4 25/2/4 27/2/4
f 26/1/4 24/1/4 27/1/4
f 27/2/4 25/2/4 28/2/4
f 31/1/5 30/1/5 29/1/5
f 32/1/5 30/1/5 31/1/5
f 33/2/6 34/2/6 36/2/6
f 34/3/6 35/3/6 36/3/6
f 36/3/6 35/3/6 37/3/6
f 36/2/6 37/2/6 38/2/6
f 37/3/6 35/3/6 38/3/6
f 38/3/6 35/3/6 39/3/6
f 33/2/6 36/2/6 40/2/6
f 36/2/6 38/2/6 40/2/6
f 38/2/6 39/2/6 40/2/6
f 40/2/6 39/2/6 41/2/6
