# MagicaVoxel @ Ephtracy

# group
o 

# material
mtllib SlopedSnowTile.mtl
usemtl palette

# normals
vn -1 0 0
vn 1 0 0
vn 0 0 1
vn 0 0 -1
vn 0 -1 0
vn 0 1 0

# texcoords
vt 0.0683594 0.5
vt 0.369141 0.5
vt 0.958984 0.5

# verts
v -0.4 0 0.4
v -0.4 0 -0.4
v -0.4 0.1 0.4
v -0.4 0.1 -0.4
v -0.3 0.1 0.4
v -0.3 0.1 -0.4
v -0.3 0.2 0.4
v -0.3 0.2 -0.4
v -0.2 0.2 0.4
v -0.2 0.2 -0.4
v -0.2 0.3 0.4
v -0.2 0.3 -0.4
v -0.1 0.3 0.4
v -0.1 0.3 -0.4
v -0.1 0.4 0.4
v -0.1 0.4 -0.4
v 0 0.4 0.4
v 0 0.4 -0.4
v 0 0.5 0.4
v 0 0.5 -0.4
v 0.1 0.3 0
v 0.1 0.3 -0.1
v 0.1 0.4 0
v 0.1 0.4 -0.1
v 0.1 0.5 0.4
v 0.1 0.5 -0.4
v 0.1 0.6 0.4
v 0.1 0.6 -0.4
v 0.2 0.6 0.4
v 0.2 0.6 -0.4
v 0.2 0.7 0.4
v 0.2 0.7 -0.4
v 0.3 0.7 0.4
v 0.3 0.7 -0.4
v 0.3 0.8 0.4
v 0.3 0.8 -0.4
v 0 0.3 0
v 0 0.3 -0.1
v 0 0.4 0
v 0 0.4 -0.1
v 0.4 0 0.4
v 0.4 0 -0.4
v 0.4 0.7 0.4
v 0.4 0.7 -0.4
v 0.4 0.8 0.4
v 0.4 0.8 -0.4
v -0.4 0 0.4
v -0.4 0.1 0.4
v -0.3 0 0.4
v -0.3 0.1 0.4
v -0.3 0.2 0.4
v -0.2 0.1 0.4
v -0.2 0.2 0.4
v -0.2 0.3 0.4
v -0.1 0.2 0.4
v -0.1 0.3 0.4
v -0.1 0.4 0.4
v 0 0.3 0.4
v 0 0.4 0.4
v 0 0.5 0.4
v 0.1 0.4 0.4
v 0.1 0.5 0.4
v 0.1 0.6 0.4
v 0.2 0.5 0.4
v 0.2 0.6 0.4
v 0.2 0.7 0.4
v 0.3 0.6 0.4
v 0.3 0.7 0.4
v 0.3 0.8 0.4
v 0.4 0 0.4
v 0.4 0.7 0.4
v 0.4 0.8 0.4
v 0 0.3 -0.1
v 0 0.4 -0.1
v 0.1 0.3 -0.1
v 0.1 0.4 -0.1
v 0 0.3 0
v 0 0.4 0
v 0.1 0.3 0
v 0.1 0.4 0
v -0.4 0 -0.4
v -0.4 0.1 -0.4
v -0.3 0 -0.4
v -0.3 0.1 -0.4
v -0.3 0.2 -0.4
v -0.2 0.1 -0.4
v -0.2 0.2 -0.4
v -0.2 0.3 -0.4
v -0.1 0.2 -0.4
v -0.1 0.3 -0.4
v -0.1 0.4 -0.4
v 0 0.3 -0.4
v 0 0.4 -0.4
v 0 0.5 -0.4
v 0.1 0.4 -0.4
v 0.1 0.5 -0.4
v 0.1 0.6 -0.4
v 0.2 0.5 -0.4
v 0.2 0.6 -0.4
v 0.2 0.7 -0.4
v 0.3 0.6 -0.4
v 0.3 0.7 -0.4
v 0.3 0.8 -0.4
v 0.4 0 -0.4
v 0.4 0.7 -0.4
v 0.4 0.8 -0.4
v -0.4 0 0.4
v -0.3 0 0.4
v 0.4 0 0.4
v -0.4 0 -0.4
v -0.3 0 -0.4
v 0.4 0 -0.4
v 0 0.4 0
v 0.1 0.4 0
v 0 0.4 -0.1
v 0.1 0.4 -0.1
v -0.4 0.1 0.4
v -0.3 0.1 0.4
v -0.4 0.1 -0.4
v -0.3 0.1 -0.4
v -0.3 0.2 0.4
v -0.2 0.2 0.4
v -0.3 0.2 -0.4
v -0.2 0.2 -0.4
v -0.2 0.3 0.4
v -0.1 0.3 0.4
v 0 0.3 0
v 0.1 0.3 0
v 0 0.3 -0.1
v 0.1 0.3 -0.1
v -0.2 0.3 -0.4
v -0.1 0.3 -0.4
v -0.1 0.4 0.4
v 0 0.4 0.4
v -0.1 0.4 -0.4
v 0 0.4 -0.4
v 0 0.5 0.4
v 0.1 0.5 0.4
v 0 0.5 -0.4
v 0.1 0.5 -0.4
v 0.1 0.6 0.4
v 0.2 0.6 0.4
v 0.1 0.6 -0.4
v 0.2 0.6 -0.4
v 0.2 0.7 0.4
v 0.3 0.7 0.4
v 0.2 0.7 -0.4
v 0.3 0.7 -0.4
v 0.3 0.8 0.4
v 0.4 0.8 0.4
v 0.3 0.8 -0.4
v 0.4 0.8 -0.4

# faces
f 3/3/1 2/3/1 1/3/1
f 4/3/1 2/3/1 3/3/1
f 7/3/1 6/3/1 5/3/1
f 8/3/1 6/3/1 7/3/1
f 11/3/1 10/3/1 9/3/1
f 12/3/1 10/3/1 11/3/1
f 15/3/1 14/3/1 13/3/1
f 16/3/1 14/3/1 15/3/1
f 19/3/1 18/3/1 17/3/1
f 20/3/1 18/3/1 19/3/1
f 23/2/1 22/2/1 21/2/1
f 24/2/1 22/2/1 23/2/1
f 27/3/1 26/3/1 25/3/1
f 28/3/1 26/3/1 27/3/1
f 31/3/1 30/3/1 29/3/1
f 32/3/1 30/3/1 31/3/1
f 35/3/1 34/3/1 33/3/1
f 36/3/1 34/3/1 35/3/1
f 37/3/2 38/3/2 39/3/2
f 39/3/2 38/3/2 40/3/2
f 41/2/2 42/2/2 43/2/2
f 43/2/2 42/2/2 44/2/2
f 43/3/2 44/3/2 45/3/2
f 45/3/2 44/3/2 46/3/2
f 49/3/3 48/3/3 47/3/3
f 50/3/3 48/3/3 49/3/3
f 52/2/3 50/2/3 49/2/3
f 52/3/3 51/3/3 50/3/3
f 53/3/3 51/3/3 52/3/3
f 55/2/3 53/2/3 52/2/3
f 55/3/3 54/3/3 53/3/3
f 56/3/3 54/3/3 55/3/3
f 58/2/3 56/2/3 55/2/3
f 58/3/3 57/3/3 56/3/3
f 59/3/3 57/3/3 58/3/3
f 61/2/3 59/2/3 58/2/3
f 61/3/3 60/3/3 59/3/3
f 62/3/3 60/3/3 61/3/3
f 64/2/3 62/2/3 61/2/3
f 64/3/3 63/3/3 62/3/3
f 65/3/3 63/3/3 64/3/3
f 67/2/3 65/2/3 64/2/3
f 67/3/3 66/3/3 65/3/3
f 68/3/3 66/3/3 67/3/3
f 70/2/3 52/2/3 49/2/3
f 70/2/3 55/2/3 52/2/3
f 70/2/3 68/2/3 67/2/3
f 70/2/3 67/2/3 64/2/3
f 70/2/3 64/2/3 61/2/3
f 70/2/3 61/2/3 58/2/3
f 70/2/3 58/2/3 55/2/3
f 71/3/3 69/3/3 68/3/3
f 71/2/3 68/2/3 70/2/3
f 72/3/3 69/3/3 71/3/3
f 75/2/3 74/2/3 73/2/3
f 76/2/3 74/2/3 75/2/3
f 77/2/4 78/2/4 79/2/4
f 79/2/4 78/2/4 80/2/4
f 81/3/4 82/3/4 83/3/4
f 83/3/4 82/3/4 84/3/4
f 83/2/4 84/2/4 86/2/4
f 84/3/4 85/3/4 86/3/4
f 86/3/4 85/3/4 87/3/4
f 86/2/4 87/2/4 89/2/4
f 87/3/4 88/3/4 89/3/4
f 89/3/4 88/3/4 90/3/4
f 89/2/4 90/2/4 92/2/4
f 90/3/4 91/3/4 92/3/4
f 92/3/4 91/3/4 93/3/4
f 92/2/4 93/2/4 95/2/4
f 93/3/4 94/3/4 95/3/4
f 95/3/4 94/3/4 96/3/4
f 95/2/4 96/2/4 98/2/4
f 96/3/4 97/3/4 98/3/4
f 98/3/4 97/3/4 99/3/4
f 98/2/4 99/2/4 101/2/4
f 99/3/4 100/3/4 101/3/4
f 101/3/4 100/3/4 102/3/4
f 83/2/4 86/2/4 104/2/4
f 86/2/4 89/2/4 104/2/4
f 101/2/4 102/2/4 104/2/4
f 98/2/4 101/2/4 104/2/4
f 95/2/4 98/2/4 104/2/4
f 92/2/4 95/2/4 104/2/4
f 89/2/4 92/2/4 104/2/4
f 102/3/4 103/3/4 105/3/4
f 104/2/4 102/2/4 105/2/4
f 105/3/4 103/3/4 106/3/4
f 110/3/5 108/3/5 107/3/5
f 111/2/5 109/2/5 108/2/5
f 111/3/5 108/3/5 110/3/5
f 112/2/5 109/2/5 111/2/5
f 115/3/5 114/3/5 113/3/5
f 116/3/5 114/3/5 115/3/5
f 117/3/6 118/3/6 119/3/6
f 119/3/6 118/3/6 120/3/6
f 121/3/6 122/3/6 123/3/6
f 123/3/6 122/3/6 124/3/6
f 127/2/6 128/2/6 129/2/6
f 129/2/6 128/2/6 130/2/6
f 125/3/6 126/3/6 131/3/6
f 131/3/6 126/3/6 132/3/6
f 133/3/6 134/3/6 135/3/6
f 135/3/6 134/3/6 136/3/6
f 137/3/6 138/3/6 139/3/6
f 139/3/6 138/3/6 140/3/6
f 141/3/6 142/3/6 143/3/6
f 143/3/6 142/3/6 144/3/6
f 145/3/6 146/3/6 147/3/6
f 147/3/6 146/3/6 148/3/6
f 149/3/6 150/3/6 151/3/6
f 151/3/6 150/3/6 152/3/6
