# MagicaVoxel @ Ephtracy

# group
o 

# material
mtllib SlopedInwardCornerSnowTile.mtl
usemtl palette

# normals
vn -1 0 0
vn 1 0 0
vn 0 0 1
vn 0 0 -1
vn 0 -1 0
vn 0 1 0

# texcoords
vt 0.0683594 0.5
vt 0.369141 0.5
vt 0.958984 0.5

# verts
v -0.4 0 0.4
v -0.4 0 0.3
v -0.4 0 -0.4
v -0.4 0.1 0.4
v -0.4 0.1 0.3
v -0.4 0.1 0.2
v -0.4 0.2 0.3
v -0.4 0.2 0.2
v -0.4 0.2 0.1
v -0.4 0.3 0.2
v -0.4 0.3 0.1
v -0.4 0.3 0
v -0.4 0.4 0.1
v -0.4 0.4 0
v -0.4 0.4 -0.1
v -0.4 0.5 0
v -0.4 0.5 -0.1
v -0.4 0.5 -0.2
v -0.4 0.6 -0.1
v -0.4 0.6 -0.2
v -0.4 0.6 -0.3
v -0.4 0.7 -0.2
v -0.4 0.7 -0.3
v -0.4 0.7 -0.4
v -0.4 0.8 -0.3
v -0.4 0.8 -0.4
v -0.3 0.1 0.4
v -0.3 0.1 0.3
v -0.3 0.2 0.4
v -0.3 0.2 0.3
v -0.2 0.2 0.4
v -0.2 0.2 0.2
v -0.2 0.3 0.4
v -0.2 0.3 0.2
v -0.1 0.3 0.4
v -0.1 0.3 0.1
v -0.1 0.4 0.4
v -0.1 0.4 0.1
v 0 0.4 0.4
v 0 0.4 0
v 0 0.5 0.4
v 0 0.5 0
v 0.1 0.5 0.4
v 0.1 0.5 -0.1
v 0.1 0.6 0.4
v 0.1 0.6 -0.1
v 0.2 0.6 0.4
v 0.2 0.6 -0.2
v 0.2 0.7 0.4
v 0.2 0.7 -0.2
v 0.3 0.7 0.4
v 0.3 0.7 -0.3
v 0.3 0.8 0.4
v 0.3 0.8 -0.3
v 0.4 0 0.4
v 0.4 0 -0.4
v 0.4 0.7 0.4
v 0.4 0.7 -0.4
v 0.4 0.8 0.4
v 0.4 0.8 -0.4
v -0.4 0 0.4
v -0.4 0.1 0.4
v -0.3 0 0.4
v -0.3 0.1 0.4
v -0.3 0.2 0.4
v -0.2 0.1 0.4
v -0.2 0.2 0.4
v -0.2 0.3 0.4
v -0.1 0.2 0.4
v -0.1 0.3 0.4
v -0.1 0.4 0.4
v 0 0.3 0.4
v 0 0.4 0.4
v 0 0.5 0.4
v 0.1 0.4 0.4
v 0.1 0.5 0.4
v 0.1 0.6 0.4
v 0.2 0.5 0.4
v 0.2 0.6 0.4
v 0.2 0.7 0.4
v 0.3 0.6 0.4
v 0.3 0.7 0.4
v 0.3 0.8 0.4
v 0.4 0 0.4
v 0.4 0.7 0.4
v 0.4 0.8 0.4
v -0.4 0.1 0.3
v -0.4 0.2 0.3
v -0.3 0.1 0.3
v -0.3 0.2 0.3
v -0.4 0.2 0.2
v -0.4 0.3 0.2
v -0.2 0.2 0.2
v -0.2 0.3 0.2
v -0.4 0.3 0.1
v -0.4 0.4 0.1
v -0.1 0.3 0.1
v -0.1 0.4 0.1
v -0.4 0.4 0
v -0.4 0.5 0
v 0 0.4 0
v 0 0.5 0
v -0.4 0.5 -0.1
v -0.4 0.6 -0.1
v 0.1 0.5 -0.1
v 0.1 0.6 -0.1
v -0.4 0.6 -0.2
v -0.4 0.7 -0.2
v 0.2 0.6 -0.2
v 0.2 0.7 -0.2
v -0.4 0.7 -0.3
v -0.4 0.8 -0.3
v 0.3 0.7 -0.3
v 0.3 0.8 -0.3
v -0.4 0 -0.4
v -0.4 0.7 -0.4
v -0.4 0.8 -0.4
v 0.4 0 -0.4
v 0.4 0.7 -0.4
v 0.4 0.8 -0.4
v -0.4 0 0.4
v -0.3 0 0.4
v 0.4 0 0.4
v -0.4 0 0.3
v -0.3 0 0.3
v -0.4 0 -0.4
v 0.4 0 -0.4
v -0.4 0.1 0.4
v -0.3 0.1 0.4
v -0.4 0.1 0.3
v -0.3 0.1 0.3
v -0.3 0.2 0.4
v -0.2 0.2 0.4
v -0.4 0.2 0.3
v -0.3 0.2 0.3
v -0.4 0.2 0.2
v -0.2 0.2 0.2
v -0.2 0.3 0.4
v -0.1 0.3 0.4
v -0.4 0.3 0.2
v -0.2 0.3 0.2
v -0.4 0.3 0.1
v -0.1 0.3 0.1
v -0.1 0.4 0.4
v 0 0.4 0.4
v -0.4 0.4 0.1
v -0.1 0.4 0.1
v -0.4 0.4 0
v 0 0.4 0
v 0 0.5 0.4
v 0.1 0.5 0.4
v -0.4 0.5 0
v 0 0.5 0
v -0.4 0.5 -0.1
v 0.1 0.5 -0.1
v 0.1 0.6 0.4
v 0.2 0.6 0.4
v -0.4 0.6 -0.1
v 0.1 0.6 -0.1
v -0.4 0.6 -0.2
v 0.2 0.6 -0.2
v 0.2 0.7 0.4
v 0.3 0.7 0.4
v -0.4 0.7 -0.2
v 0.2 0.7 -0.2
v -0.4 0.7 -0.3
v 0.3 0.7 -0.3
v 0.3 0.8 0.4
v 0.4 0.8 0.4
v -0.4 0.8 -0.3
v 0.3 0.8 -0.3
v -0.4 0.8 -0.4
v 0.4 0.8 -0.4

# faces
f 4/3/1 2/3/1 1/3/1
f 5/2/1 3/2/1 2/2/1
f 5/3/1 2/3/1 4/3/1
f 6/2/1 3/2/1 5/2/1
f 7/3/1 6/3/1 5/3/1
f 8/2/1 3/2/1 6/2/1
f 8/3/1 6/3/1 7/3/1
f 9/2/1 3/2/1 8/2/1
f 10/3/1 9/3/1 8/3/1
f 11/2/1 3/2/1 9/2/1
f 11/3/1 9/3/1 10/3/1
f 12/2/1 3/2/1 11/2/1
f 13/3/1 12/3/1 11/3/1
f 14/2/1 3/2/1 12/2/1
f 14/3/1 12/3/1 13/3/1
f 15/2/1 3/2/1 14/2/1
f 16/3/1 15/3/1 14/3/1
f 17/2/1 3/2/1 15/2/1
f 17/3/1 15/3/1 16/3/1
f 18/2/1 3/2/1 17/2/1
f 19/3/1 18/3/1 17/3/1
f 20/2/1 3/2/1 18/2/1
f 20/3/1 18/3/1 19/3/1
f 21/2/1 3/2/1 20/2/1
f 22/3/1 21/3/1 20/3/1
f 23/2/1 3/2/1 21/2/1
f 23/3/1 21/3/1 22/3/1
f 24/2/1 3/2/1 23/2/1
f 25/3/1 24/3/1 23/3/1
f 26/3/1 24/3/1 25/3/1
f 29/3/1 28/3/1 27/3/1
f 30/3/1 28/3/1 29/3/1
f 33/3/1 32/3/1 31/3/1
f 34/3/1 32/3/1 33/3/1
f 37/3/1 36/3/1 35/3/1
f 38/3/1 36/3/1 37/3/1
f 41/3/1 40/3/1 39/3/1
f 42/3/1 40/3/1 41/3/1
f 45/3/1 44/3/1 43/3/1
f 46/3/1 44/3/1 45/3/1
f 49/3/1 48/3/1 47/3/1
f 50/3/1 48/3/1 49/3/1
f 53/3/1 52/3/1 51/3/1
f 54/3/1 52/3/1 53/3/1
f 55/2/2 56/2/2 57/2/2
f 57/2/2 56/2/2 58/2/2
f 57/3/2 58/3/2 59/3/2
f 59/3/2 58/3/2 60/3/2
f 63/3/3 62/3/3 61/3/3
f 64/3/3 62/3/3 63/3/3
f 66/2/3 64/2/3 63/2/3
f 66/3/3 65/3/3 64/3/3
f 67/3/3 65/3/3 66/3/3
f 69/2/3 67/2/3 66/2/3
f 69/3/3 68/3/3 67/3/3
f 70/3/3 68/3/3 69/3/3
f 72/2/3 70/2/3 69/2/3
f 72/3/3 71/3/3 70/3/3
f 73/3/3 71/3/3 72/3/3
f 75/2/3 73/2/3 72/2/3
f 75/3/3 74/3/3 73/3/3
f 76/3/3 74/3/3 75/3/3
f 78/2/3 76/2/3 75/2/3
f 78/3/3 77/3/3 76/3/3
f 79/3/3 77/3/3 78/3/3
f 81/2/3 79/2/3 78/2/3
f 81/3/3 80/3/3 79/3/3
f 82/3/3 80/3/3 81/3/3
f 84/2/3 66/2/3 63/2/3
f 84/2/3 69/2/3 66/2/3
f 84/2/3 82/2/3 81/2/3
f 84/2/3 81/2/3 78/2/3
f 84/2/3 78/2/3 75/2/3
f 84/2/3 75/2/3 72/2/3
f 84/2/3 72/2/3 69/2/3
f 85/3/3 83/3/3 82/3/3
f 85/2/3 82/2/3 84/2/3
f 86/3/3 83/3/3 85/3/3
f 89/3/3 88/3/3 87/3/3
f 90/3/3 88/3/3 89/3/3
f 93/3/3 92/3/3 91/3/3
f 94/3/3 92/3/3 93/3/3
f 97/3/3 96/3/3 95/3/3
f 98/3/3 96/3/3 97/3/3
f 101/3/3 100/3/3 99/3/3
f 102/3/3 100/3/3 101/3/3
f 105/3/3 104/3/3 103/3/3
f 106/3/3 104/3/3 105/3/3
f 109/3/3 108/3/3 107/3/3
f 110/3/3 108/3/3 109/3/3
f 113/3/3 112/3/3 111/3/3
f 114/3/3 112/3/3 113/3/3
f 115/2/4 116/2/4 118/2/4
f 116/3/4 117/3/4 119/3/4
f 118/2/4 116/2/4 119/2/4
f 119/3/4 117/3/4 120/3/4
f 124/3/5 122/3/5 121/3/5
f 125/2/5 123/2/5 122/2/5
f 125/3/5 122/3/5 124/3/5
f 126/2/5 125/2/5 124/2/5
f 127/2/5 123/2/5 125/2/5
f 127/2/5 125/2/5 126/2/5
f 128/3/6 129/3/6 130/3/6
f 130/3/6 129/3/6 131/3/6
f 132/3/6 133/3/6 135/3/6
f 134/3/6 135/3/6 136/3/6
f 135/3/6 133/3/6 137/3/6
f 136/3/6 135/3/6 137/3/6
f 138/3/6 139/3/6 141/3/6
f 140/3/6 141/3/6 142/3/6
f 141/3/6 139/3/6 143/3/6
f 142/3/6 141/3/6 143/3/6
f 144/3/6 145/3/6 147/3/6
f 146/3/6 147/3/6 148/3/6
f 147/3/6 145/3/6 149/3/6
f 148/3/6 147/3/6 149/3/6
f 150/3/6 151/3/6 153/3/6
f 152/3/6 153/3/6 154/3/6
f 153/3/6 151/3/6 155/3/6
f 154/3/6 153/3/6 155/3/6
f 156/3/6 157/3/6 159/3/6
f 158/3/6 159/3/6 160/3/6
f 159/3/6 157/3/6 161/3/6
f 160/3/6 159/3/6 161/3/6
f 162/3/6 163/3/6 165/3/6
f 164/3/6 165/3/6 166/3/6
f 165/3/6 163/3/6 167/3/6
f 166/3/6 165/3/6 167/3/6
f 168/3/6 169/3/6 171/3/6
f 170/3/6 171/3/6 172/3/6
f 171/3/6 169/3/6 173/3/6
f 172/3/6 171/3/6 173/3/6
